<svg width="100" height="326" viewBox="0 0 145 326"  xmlns="http://www.w3.org/2000/svg">

<path id="biceps" d="M33 51L32 49L30.5 50.5L28.5 52.5L26.5 54.5L24.5 56.5L22.5 58.5L20.5 60L17.7601 61.5H16L14.5 61L13.5 59.5L12.5 61L11.5 63.5L10.5 66.5L9.5 69L9 71.5V76V79.5V85L9.5 89L10 91.5L11 94.5L12.5 97L14 99.5L15 101.5L16 103H17L18.5 102L20.5 100L22 98L24 95.5L25.5 93.5L27 91.5L28 89L29 85.5L30 82.5L31 80L32.5 77.5L34 75L35 73L36 70.5L36.5 68V64.5V60L36 58V56L35 54.5L34 53L33 51Z" stroke="white"/>
<path id="biceps" d="M111.5 51L112.5 49L114 50.5L116 52.5L118 54.5L120 56.5L122 58.5L124 60L126.74 61.5H128.5L130 61L131 59.5L132 61L133 63.5L134 66.5L135 69L135.5 71.5V76V79.5V85L135 89L134.5 91.5L133.5 94.5L132 97L130.5 99.5L129.5 101.5L128.5 103H127.5L126 102L124 100L122.5 98L120.5 95.5L119 93.5L117.5 91.5L116.5 89L115.5 85.5L114.5 82.5L113.5 80L112 77.5L110.5 75L109.5 73L108.5 70.5L108 68V64.5V60L108.5 58V56L109.5 54.5L110.5 53L111.5 51Z" stroke="white"/>

<path id="chess" d="M83.1205 28H86.012H92.2771H94.6867L97.5783 29.5L99.988 30.5L102.88 32L104.325 33.5L105.771 35.5L108.181 37.5L110.108 39.5L111.554 41.5L113 43.5V45.5V48.5L112.036 51L110.59 53L108.663 55.5L106.735 58L104.325 60.5L101.916 62.5L99.988 64L97.5783 65L95.1687 66H91.7952L87.9398 65.5L85.0482 64.5L82.1566 63L80.2289 61L77.8193 59.5L76.3735 57.5L75.8916 55.5L74.4458 52.5L73.9639 49L73 45.5V44V40.5V37.5L73.9639 35.5L75.4096 33L77.3373 30.5L80.2289 29L83.1205 28Z" stroke="white"/>
<path id="chess" d="M62.6265 28H59.6627H53.241H50.7711L47.8072 29.5L45.3373 30.5L42.3735 32L40.8916 33.5L39.4096 35.5L36.9398 37.5L34.9639 39.5L33.4819 41.5L32 43.5V45.5V48.5L32.988 51L34.4699 53L36.4458 55.5L38.4217 58L40.8916 60.5L43.3614 62.5L45.3373 64L47.8072 65L50.2771 66H53.7349L57.6867 65.5L60.6506 64.5L63.6145 63L65.5904 61L68.0602 59.5L69.5422 57.5L70.0361 55.5L71.5181 52.5L72.012 49L73 45.5V44V40.5V37.5L72.012 35.5L70.5301 33L68.5542 30.5L65.5904 29L62.6265 28Z" stroke="white"/>

<path id="trapeze" d="M84 8L85.5 1H86.5L87.5 2L88.5 3.5L90.5 4.5L93 6L95.5 7.5L98.5 9L101 10L103.5 11.5L106.5 13L109.5 14.5L112 16.5L114.5 18.5L115.5 19V19.5V20L114.5 20.5L113 21L110.5 22H108L104 23L100 23.5L97.5 25L95 25.5L92 26.5L89 28H86.5H83L81.5 27L80 26L79 25V23.5L79.5 21.5L80.5 19.5L81.5 17.5L82 15.5L82.5 13.5L83.5 10.5L84 8Z" stroke="white"/>
<path id="trapeze" d="M61 8L59.5 1H58.5L57.5 2L56.5 3.5L54.5 4.5L52 6L49.5 7.5L46.5 9L44 10L41.5 11.5L38.5 13L35.5 14.5L33 16.5L30.5 18.5L29.5 19V19.5V20L30.5 20.5L32 21L34.5 22H37L41 23L45 23.5L47.5 25L50 25.5L53 26.5L56 28H58.5H62L63.5 27L65 26L66 25V23.5L65.5 21.5L64.5 19.5L63.5 17.5L63 15.5L62.5 13.5L61.5 10.5L61 8Z" stroke="white"/>

<path id="shoulder" d="M118.5 20.5L115.5 20L114 20.5L113 21.5L111 22H109.5L106.5 22.5L103.5 23L100.5 23.5L98 24.5L95 25.5L92.5 26.5L91 27L91.5 28H94L95.5 28.5L97.5 29.5L100 30.5L102 31.5L104 33L106 35L108 37L110 39L112 41.5L112.5 43L113 45V48L114 50L115.5 51.5L117 53L118.5 54.5L121 57L123 59L125.5 60.5L128 61.5H129L130.5 61L132 58L133 55.5L133.5 53L134 51V49V46L133.5 43L133 40.5L132.5 38.5L132 36.5L131 33.5L130 29.5L128.5 27.5L126.5 25.5L124 24L121.5 22.5L118.5 20.5Z" stroke="white"/>
<path id="shoulder" d="M26.5 20.5L29.5 20L31 20.5L32 21.5L34 22H35.5L38.5 22.5L41.5 23L44.5 23.5L47 24.5L50 25.5L52.5 26.5L54 27L53.5 28H51L49.5 28.5L47.5 29.5L45 30.5L43 31.5L41 33L39 35L37 37L35 39L33 41.5L32.5 43L32 45V48L31 50L29.5 51.5L28 53L26.5 54.5L24 57L22 59L19.5 60.5L17 61.5H16L14.5 61L13 58L12 55.5L11.5 53L11 51V49V46L11.5 43L12 40.5L12.5 38.5L13 36.5L14 33.5L15 29.5L16.5 27.5L18.5 25.5L21 24L23.5 22.5L26.5 20.5Z" stroke="white"/>

<path id="abs" d="M38.5 58.5L36.5 56.5V58.5L37 60V62.5V65V69L37.5 71L38.5 74L39 77.5L40.5 81L42 84.5L43 87L43.5 89.5V92.5V101V109L42 112L40 115.5L39 117.5L38.5 120V124L39.5 127L42.5 129.5L45.5 132L48 134.5L50.5 138L52.5 141.5L54 144.5L56 148L57.5 150.5L58.5 152.5L60 155.5L61.5 158.5L63 161.5L65 164.5L67 167L69.5 168.5L72.5 169L75 168.5L77 167.5L78.5 166L80 164.5L81.5 162L82.5 159.5L84 156.5L85.5 153.5L87 150.5L89 147L91 142.5L93.5 138.5L97 134L100 131L104 128L105.5 126V123V118L104.5 116L103.5 113.5L102.5 111.5L101.5 110V105V102V97.5V92V89.5L102.5 86.5L103 84.5L104 82L104.5 79.5L105.5 77L106.5 74.5L107 73L107.5 71V69.5V68V67V65.5V63.5V61.5L108 60L108.5 58.5L108 58H107.5L106.5 58.5L105 60L102.5 62.5L100.5 64L98.5 65L95 66.5H91.5L89.5 66L87 65.5L84.5 64.5L82.5 63.5L81 62H79.5H77H75.5L74.5 63L73.5 63.5H72L70.5 62.5L69 62H67.5H65.5L64.5 62.5L63 63.5L60 65L56.5 66L53.5 66.5H51.5L49.5 66L47 65L45 64L43 62.5L41 61L38.5 58.5Z" stroke="white"/>

<path id="forearm" d="M7 88.5L9 86V88.5L9.5 91L10.5 94L12.5 97.5L14.5 101L16 103.5H17L18 102.5L20 101L22.5 98.5L24.5 95.5L26 93L27.5 91V92.5V94V97V100.5L26.5 103L26 106V111V116L25.5 118.5L24.5 122L23.5 125L22.5 127.5L21 130.5L20 133L19 136L18 139.5L17 143V146V151.5V154L15.5 154.5L13.5 152L11.5 149.5L9.5 147L8 144L6.5 141L5 138.5L3.5 136L2.5 133.5L1.5 129.5L1 125.5L0.5 123V120V117L1 113.5L2 110L3 108V105V101.5V97.5L4 94.5L5.5 91L7 88.5Z" stroke="white"/>
<path id="forearm" d="M137.5 88.5L135.5 86V88.5L135 91L134 94L132 97.5L130 101L128.5 103.5H127.5L126.5 102.5L124.5 101L122 98.5L120 95.5L118.5 93L117 91V92.5V94V97V100.5L118 103L118.5 106V111V116L119 118.5L120 122L121 125L122 127.5L123.5 130.5L124.5 133L125.5 136L126.5 139.5L127.5 143V146V151.5V154L129 154.5L131 152L133 149.5L135 147L136.5 144L138 141L139.5 138.5L141 136L142 133.5L143 129.5L143.5 125.5L144 123V120V117L143.5 113.5L142.5 110L141.5 108V105V101.5V97.5L140.5 94.5L139 91L137.5 88.5Z" stroke="white"/>

<path id="quad" d="M106 130L105.5 126L104.5 127L103 128.5L100 131L97 134.5L94.5 138L93 140.5L91.5 143.5L89.5 146.5L88 149.5L86.5 152.5L85 155L84 157.5L83 159.5L81.5 162L80 164.5L77 166.5L75 167.5L73 169V173V176.5L74 179.5L74.5 182.5L75.5 186.5L76.5 190.5L77 193.5L78 198.5L78.5 203.5L79.5 207L80.5 212V219.5L81 227.5L81.5 231.5L82 236L82.5 238L83.5 239L86 239.5H89L92 238.5L94 237L96 235L98 232.5L99 230.5L100 227.5L100.5 225.5L101 222.5L101.5 222H102.5L103 224.5L103.5 226L104.5 228.5L105.5 230L107.5 232L109 234H111L112.5 233.5L113.5 232L114 226L115 220L115.5 212L116 206.5V190V185.5L115 180L114 177L113 172.5V169.5L112 164L111 160.5L110 156L109 153.5L108.5 148.5V144V140.5L107.5 137L107 133.5L106 130Z" stroke="white"/>
<path id="quad" d="M39.5 131.5L40 127.5L41 128.5L42.5 130L45.5 132.5L48.5 136L51 139.5L52.5 142L54 145L56 148L57.5 151L59 154L60.5 156.5L61.5 159L62.5 161L64 163.5L65.5 166L68.5 168L70.5 169L72.5 170.5V174.5V178L71.5 181L71 184L70 188L69 192L68.5 195L67.5 200L67 205L66 208.5L65 213.5V221L64.5 229L64 233L63.5 237.5L63 239.5L62 240.5L59.5 241H56.5L53.5 240L51.5 238.5L49.5 236.5L47.5 234L46.5 232L45.5 229L45 227L44.5 224L44 223.5H43L42.5 226L42 227.5L41 230L40 231.5L38 233.5L36.5 235.5H34.5L33 235L32 233.5L31.5 227.5L30.5 221.5L30 213.5L29.5 208V191.5V187L30.5 181.5L31.5 178.5L32.5 174V171L33.5 165.5L34.5 162L35.5 157.5L36.5 155L37 150V145.5V142L38 138.5L38.5 135L39.5 131.5Z" stroke="white"/>

<path id="calf" d="M35 258L33 254.5L32 255L31 258.5L30 261.5L28.5 267L27 270L26.5 273.5V278L27 283L28.5 291L29.5 297L30 303L31 310.5L31.5 315.5L32 321V324.5L33 325L34 323L35.5 320L36.5 318L38 317H39.5L40.5 317.5L41.5 318.5L42 321L43 322.5L44.5 324.5L45.5 325L46.5 324V321.5L47 318.5L48 315L48.5 311L49.5 305.5L50 303L51 300L52 297L53.5 293.5L55 290.5L56.5 287L57.5 285L59 281.5V279V274.746V266L58.5 262L58 259L56.5 257L54.5 258.5L52.5 261.5L50 265L48 268L45.5 268.5L39.5 266L38 264L36.5 261L35 258Z" stroke="white"/>
<path id="calf" d="M110 257.5L112 254L113 254.5L114 258L115 261L116.5 266.5L118 269.5L118.5 273V277.5L118 282.5L116.5 290.5L115.5 296.5L115 302.5L114 310L113.5 315L113 320.5V324L112 324.5L111 322.5L109.5 319.5L108.5 317.5L107 316.5H105.5L104.5 317L103.5 318L103 320.5L102 322L100.5 324L99.5 324.5L98.5 323.5V321L98 318L97 314.5L96.5 310.5L95.5 305L95 302.5L94 299.5L93 296.5L91.5 293L90 290L88.5 286.5L87.5 284.5L86 281V278.5V274.246V265.5L86.5 261.5L87 258.5L88.5 256.5L90.5 258L92.5 261L95 264.5L97 267.5L99.5 268L105.5 265.5L107 263.5L108.5 260.5L110 257.5Z" stroke="white"/>
</svg>
