<svg width="100" height="749" viewBox="0 0 399 749" xmlns="http://www.w3.org/2000/svg">
  <!-- Épaules gauche (rouge) -->
  <path id="shoulder" d="M89 85L77.5 83L72.5 84L65.5 87L54 97.5L47.5 108.5L43.5 120.5L42.5 131.5V140.5L47 146.5L51 142L57 136.5L59.5 134.5H60.5L62.5 134L68 131.5L77 126L87 121.5L103.5 113.5L114.5 109L127 104.5L133.5 101L130 99L122.5 96L111.5 91.5L100.5 88L89 85Z" stroke="white"/>
  <!-- Épaules droite (rouge) -->
  <path id="shoulder" d="M295 113.5L262 101V99L276.5 94.5L296 89L316 83H322.5L328 84L341.5 92.5L352.5 111.5L356.5 127.5V139L352.5 145L347.5 140.5L341 134.5L332 130L318 123.5L295 113.5Z" stroke="white"/>
  
  <!-- Biceps gauche (bleu) -->
  <path id="triceps" d="M51.5 152.5L65 143.5L83 134H85.5L88.5 143L92 161.5L93.5 173.5L92.5 189.5L89 207.5L83 220L76 236L72 229L69.5 223L66.5 217L65 203L63.5 189.5H48.5L45 191L34 205.5L32.5 204V186.5L37.5 172L43 161L51.5 152.5Z" stroke="white"/>
  <!-- Biceps droit (bleu) -->
  <path id="triceps" d="M311 143L314 134L332.5 142L342.5 147.5L349.5 154L358 164L363.5 177L366 189V208L362 203L355.5 195L347 184.5L337 185.5V202L334 215L324.5 237L321.5 231.5L316 220L312.5 209.5L308.5 192.5L306 172L308.5 159L311 143Z" stroke="white"/>
  
  <!-- Tête (orange) -->
  <path id="trapeze" d="M166 100L93.5 77.5L101 73L118.5 67L146 55L162 42L170.5 35V17.5L177 8L190.5 1H200.5L212.5 4L227 17.5L229 24L233 35L243.5 47.5L260.5 57.5L303.5 75.5L306 77.5L289 81.5L233 100H166Z" stroke="white"/>
  
  <!-- Torse (jaune) -->
  <path id="torso" d="M101 122.5L139 110L147.5 106.5L145 100L131.5 93L145 96L170 103H231.5L249.5 96H259.5L253.5 104.5L255 110H263.5L286.5 119.5L301 125L304.5 137.5L298 143.5V158L294 203.5L270 232V247L274.5 264.5L277.5 279L281 312.5L277.5 311L266 306.5H255H246L238 311L227.5 317L210.5 332.5L200 355.5L186 330L175.5 319L154 309L137 305L122 312.5L119.5 305L122 286.5L126 254L119.5 218.5L103.5 199.5L101 178V158L98.5 143.5L93 129.5L101 122.5Z" stroke="white"/>
  
  <!-- Abdominaux (rose) -->
  <path id="ass" d="M139 316.5L130 318L125 321L116.5 329L112 340L109.5 354.5L116.5 376.5V399L118.5 410L121 424.5L128 428.5H137.5H150L161.5 424.5L175.5 421L183.5 416L189 410H211L217 416L224 421L236 424.5L251.5 428.5L262.5 430.5L274 428.5L279.5 424.5V410L281 394.5V380L285.5 367L287 358.5L288.5 346.5L285.5 336L277.5 324L265 316.5L247.5 318L232 324L220 336L213.5 346.5L207.5 361H191.5L187 350.5L180.5 336L172 327.5L161.5 321L151.5 318L139 316.5Z" stroke="white"/>
  
  <!-- Quadriceps gauche (vert) -->
  <path id="hamstrings" d="M100 501.5L119 439.5L126.5 441.5L137.5 444L152.5 441.5L173.5 436.5L187.5 426.5V441.5V508.5L180.5 556V596.5L176 609H169.5L158 588L148.5 549.5L143.5 529L126.5 570.5L121 593.5L114.5 629V619L107.5 561L100 526V501.5Z" stroke="white"/>
  <!-- Quadriceps droit (vert) -->
  <path id="hamstrings" d="M210.5 426.5V431V481L214.5 508.5L220.5 549.5V583.5L223.5 609L230.5 613L239 586L249 556L256.5 529L260 539.5L263.5 556L273.5 596.5L283.5 624L285.5 606V578.5L292 549.5L298.5 529V504V488.5L285.5 462L275.5 439.5L249 444L230.5 439.5L210.5 426.5Z" stroke="white"/>
  
  <!-- Mollets gauche (marron) -->
  <path id="calf" d="M150 630.5L146 620.5L138 624.5L125.5 632.5L119.5 644L114 659.5L111 672.5V694.5V708.5L116.5 725L125.5 740.5L138 744L146 733.5L157.5 725L159.5 731L168 740.5L174 736.5L178.5 720.5V699.5L176.5 685.5L174 679L171.5 672.5L168 662.5L157.5 644L150 630.5Z" stroke="white"/>
  <!-- Mollets droit (marron) -->
  <path id="calf" d="M259 624.5L254 620.5L252 625.5L249.5 632L242 642L236 653.5L231.5 661.5L223 683.5L220.5 696.5L219 715V724L221.5 731L226 736.5L231.5 741.5L238 737.5L240.5 732H254L256.5 740.5L260 744.5L266.5 747.5L271 742.5L276 736.5L280 730L284 721.5L288.5 707V691V680.5L286.5 671.5L285.5 660.5L281.5 651L280 644.5L277 638.5L274.5 632.5H269L259 624.5Z" stroke="white"/>

<!-- Avant-bras gauche (noir) -->
  <path id="forearm" d="M27 268L22.5 272L20.5 276L15.5 284L8 296L7 323L9 339L10 357.5L6 370.5L1.5 389.5L29.5 396.5L30.5 386L34.5 375.5L41 363L46 351L54.5 338L61.5 324L64.5 316.5L67.5 303L70 291L67.5 281.5L59 288L54.5 295L44.5 311.5L33 309.5H22.5L27 297L28.5 289L30.5 277L29.5 266.5L27 268Z" stroke="white"/>
<!-- Avant-bras droit (noir) -->
  <path id="forearm" d="M337 286.5L330.5 279.5V292L332 304.5L337 318L341.5 330.5L350 345.5L360 360.5L364 375L370 394.5L398 386.5L396.5 378.5L394 368.5L390.5 342V330.5V316V304.5L389 298.5V293.5L386.5 286.5L380 278L372 268V278L373.5 292L376 310.5L370 311.5L365.5 310.5H353L350 302L345 292L337 286.5Z" stroke="white"/>
</svg>